control3min_grf.mot
version=1
nRows=12
nColumns 19
inDegrees=yes
endheader
time	1_ground_force_vx	1_ground_force_vy	1_ground_force_vz	1_ground_force_px	1_ground_force_py	1_ground_force_pz	1_ground_torque_x	1_ground_torque_y	1_ground_torque_z	2_ground_force_vx	2_ground_force_vy	2_ground_force_vz	2_ground_force_px	2_ground_force_py	2_ground_force_pz	2_ground_torque_x	2_ground_torque_y	2_ground_torque_z
            3.751500	            0.139103	           -6.129793	            0.156802	           -0.233013	            0.005581	           -0.255695	           -0.605268	           -0.026569	           -0.274501	            0.240190	           -1.656154	           -0.099869	           -0.232311	            0.006130	           -0.833667	           -0.338195	            0.008433	           -0.056373
            3.752000	            0.047417	           -6.129810	            0.157029	           -0.233013	            0.005581	           -0.255695	           -0.680244	           -0.183925	           -0.241302	            0.198513	           -3.128339	           -0.433603	           -0.232311	            0.006130	           -0.833667	           -0.450772	           -0.020600	            0.018974
            3.752500	           -0.042022	           -7.214961	            0.978025	           -0.233013	            0.005581	           -0.255695	           -0.733431	           -0.193353	           -0.207486	           -0.087424	           -1.838809	           -0.851237	           -0.232311	            0.006130	           -0.833667	           -0.413200	           -0.029649	           -0.056476
            3.753000	           -0.316675	           -6.314669	            1.211852	           -0.233013	            0.005581	           -0.255695	           -0.668999	            0.019543	           -0.312484	            0.055182	           -2.391249	           -0.712483	           -0.232311	            0.006130	           -0.833667	           -0.432029	           -0.011013	            0.000150
            3.753500	           -0.361949	           -6.315661	            1.441246	           -0.233013	            0.005581	           -0.255695	           -0.529020	            0.251287	           -0.464177	            0.151581	           -3.127838	           -0.621295	           -0.232311	            0.006130	           -0.833667	           -0.394338	           -0.048553	           -0.037701
            3.754000	           -0.224648	           -6.315241	            1.349193	           -0.233013	            0.005581	           -0.255695	           -0.599914	            0.315553	           -0.345073	            0.055140	           -2.390914	           -0.806339	           -0.232311	            0.006130	           -0.833667	           -0.412988	           -0.077248	            0.037606
            3.754500	            0.003234	           -6.493103	            0.797580	           -0.233013	            0.005581	           -0.255695	           -0.557559	            0.167833	           -0.354829	            0.146887	           -1.838465	           -0.710552	           -0.232311	            0.006130	           -0.833667	           -0.300216	           -0.095679	            0.018641
            3.755000	            0.231472	           -6.130955	            0.431710	           -0.233013	            0.005581	           -0.255695	           -0.522982	           -0.072960	           -0.214600	            0.286855	           -1.654479	           -0.522242	           -0.232311	            0.006130	           -0.833667	           -0.488325	           -0.030054	           -0.018744
            3.755500	            0.139624	           -6.491111	            0.338679	           -0.233013	            0.005581	           -0.255695	           -0.707108	           -0.192238	           -0.444128	           -0.181726	           -1.655501	           -0.709755	           -0.232311	            0.006130	           -0.833667	           -0.375766	            0.008298	           -0.056357
            3.756000	            0.186006	           -7.573286	            0.471496	           -0.233013	            0.005581	           -0.255695	           -0.768266	           -0.174302	           -0.310320	           -0.037751	           -2.576572	           -0.478460	           -0.232311	            0.006130	           -0.833667	           -0.413448	            0.045771	            0.000344
            3.756500	            0.003641	           -6.854224	            0.933602	           -0.233013	            0.005581	           -0.255695	           -0.638213	            0.047578	           -0.336334	            0.006482	           -1.840144	           -0.381995	           -0.232311	            0.006130	           -0.833667	           -0.375579	           -0.039100	           -0.018825
            3.757000	           -0.361299	           -6.136575	            1.717154	           -0.233013	            0.005581	           -0.255695	           -0.559306	            0.213753	           -0.332683	            0.290760	           -2.758699	           -0.713897	           -0.232311	            0.006130	           -0.833667	           -0.450584	           -0.077182	           -0.018928
